<svg width="64" height="64" viewBox="0 0 64 64" fill="none" xmlns="http://www.w3.org/2000/svg">
  <defs>
    <linearGradient id="shopfia-balloon" x1="17" y1="7" x2="48" y2="58" gradientUnits="userSpaceOnUse">
      <stop stop-color="#F2A6A4"/>
      <stop offset="1" stop-color="#FFD0AC"/>
    </linearGradient>
    <filter id="soft-shadow" x="8" y="1" width="48" height="54" color-interpolation-filters="sRGB" filterUnits="userSpaceOnUse">
      <feDropShadow dx="0" dy="2" stdDeviation="2" flood-color="#F0A9A4" flood-opacity="0.22"/>
    </filter>
  </defs>
  <path
    d="M32 3.8C20.6 3.8 12.7 13.1 12.7 25.1C12.7 37.2 21.2 45.2 28.7 46.8L26.9 52C26.5 53.1 27.7 54 28.7 53.4L32 51.5L35.3 53.4C36.3 54 37.5 53.1 37.1 52L35.3 46.8C42.8 45.2 51.3 37.2 51.3 25.1C51.3 13.1 43.4 3.8 32 3.8Z"
    fill="url(#shopfia-balloon)"
    filter="url(#soft-shadow)"
  />
  <path
    d="M24.6 11.7C20 14.8 17.4 20 17.4 25.7"
    stroke="#FFE8DD"
    stroke-width="4"
    stroke-linecap="round"
    opacity="0.62"
  />
  <path
    d="M31.9 52.2C29.1 55.1 32.8 57.2 29.7 60.4C28.9 61.3 28.2 61.8 27.4 62.4"
    stroke="#EFA19D"
    stroke-width="3.25"
    stroke-linecap="round"
    stroke-linejoin="round"
  />
</svg>
