<svg width="64" height="64" viewBox="0 0 64 64" fill="none" xmlns="http://www.w3.org/2000/svg">
  <defs>
    <linearGradient id="shopfia-balloon" x1="16" y1="4" x2="48" y2="52" gradientUnits="userSpaceOnUse">
      <stop stop-color="#F2A6A4"/>
      <stop offset="1" stop-color="#FFD0AC"/>
    </linearGradient>
    <filter id="soft-shadow" x="8" y="0" width="48" height="54" color-interpolation-filters="sRGB" filterUnits="userSpaceOnUse">
      <feDropShadow dx="0" dy="2" stdDeviation="2" flood-color="#F0A9A4" flood-opacity="0.22"/>
    </filter>
  </defs>
  <path
    d="M32 3.5C20.4 3.5 13.1 12.5 13.1 23.7C13.1 35.7 22.7 43.8 32 45.5C41.3 43.8 50.9 35.7 50.9 23.7C50.9 12.5 43.6 3.5 32 3.5Z"
    fill="url(#shopfia-balloon)"
    filter="url(#soft-shadow)"
  />
  <path
    d="M24.4 11.2C20 14.1 17.5 18.8 17.5 24.1"
    stroke="#FFE8DD"
    stroke-width="4"
    stroke-linecap="round"
    opacity="0.62"
  />
  <path
    d="M32 48.6C39.1 55.7 28.2 56.4 31.7 62.4"
    stroke="#C86F69"
    stroke-width="4.8"
    stroke-linecap="round"
    stroke-linejoin="round"
  />
  <path
    d="M27.2 44.2C28.5 42.9 35.5 42.9 36.8 44.2L39.3 48.2C40.1 49.6 39.1 51.2 37.5 51.2H26.5C24.9 51.2 23.9 49.6 24.7 48.2L27.2 44.2Z"
    fill="url(#shopfia-balloon)"
  />
</svg>
