<svg width="64" height="64" viewBox="0 0 64 64" fill="none" xmlns="http://www.w3.org/2000/svg">
  <defs>
    <linearGradient id="shopfia-flame" x1="22" y1="7" x2="45" y2="58" gradientUnits="userSpaceOnUse">
      <stop stop-color="#F2A6A4"/>
      <stop offset="1" stop-color="#FFD0AC"/>
    </linearGradient>
    <filter id="soft-shadow" x="10" y="2" width="44" height="60" color-interpolation-filters="sRGB" filterUnits="userSpaceOnUse">
      <feDropShadow dx="0" dy="2" stdDeviation="2" flood-color="#F0A9A4" flood-opacity="0.22"/>
    </filter>
  </defs>
  <path
    d="M31.9 5.5C25.1 17 17.4 26.3 17.4 38C17.4 50.4 23.7 58.5 32 58.5C40.4 58.5 46.6 50.4 46.6 38C46.6 26.4 38.8 17 31.9 5.5Z"
    fill="url(#shopfia-flame)"
    filter="url(#soft-shadow)"
  />
  <path
    d="M32.2 17.4C28.5 24.2 24.7 29.9 24.7 37.2C24.7 44.8 27.8 49.4 32 49.4C36.3 49.4 39.3 44.8 39.3 37.2C39.3 30 35.7 24.2 32.2 17.4Z"
    fill="#FFE2D3"
    opacity="0.38"
  />
</svg>
