<svg width="64" height="64" viewBox="0 0 64 64" fill="none" xmlns="http://www.w3.org/2000/svg">
  <defs>
    <linearGradient id="shopfia-balloon" x1="16" y1="3" x2="48" y2="47" gradientUnits="userSpaceOnUse">
      <stop stop-color="#F2A6A4"/>
      <stop offset="1" stop-color="#FFD0AC"/>
    </linearGradient>
    <filter id="soft-shadow" x="9" y="0" width="46" height="48" color-interpolation-filters="sRGB" filterUnits="userSpaceOnUse">
      <feDropShadow dx="0" dy="2" stdDeviation="2" flood-color="#F0A9A4" flood-opacity="0.22"/>
    </filter>
  </defs>
  <path
    d="M32 2.8C21.2 2.8 14.2 11.1 14.2 21.4C14.2 32.7 23.2 39.8 32 41.2C40.8 39.8 49.8 32.7 49.8 21.4C49.8 11.1 42.8 2.8 32 2.8Z"
    fill="url(#shopfia-balloon)"
    filter="url(#soft-shadow)"
  />
  <path
    d="M24.6 10.1C20.6 12.8 18.2 17.1 18.2 22"
    stroke="#FFE8DD"
    stroke-width="3.8"
    stroke-linecap="round"
    opacity="0.62"
  />
  <path
    d="M32 43.8C38.7 49.9 27.4 51.7 31.4 57.2C33.8 60.5 27.7 62.1 24.9 63.3"
    stroke="#C86F69"
    stroke-width="4.9"
    stroke-linecap="round"
    stroke-linejoin="round"
  />
  <path
    d="M27.4 39.6C28.7 38.4 35.3 38.4 36.6 39.6L39 43.8C39.8 45.2 38.8 46.8 37.2 46.8H26.8C25.2 46.8 24.2 45.2 25 43.8L27.4 39.6Z"
    fill="url(#shopfia-balloon)"
  />
</svg>
